<?xml version="1.0" encoding="UTF-8"?>
<!DOCTYPE svg PUBLIC "-//W3C//DTD SVG 1.1//EN" "http://www.w3.org/Graphics/SVG/1.1/DTD/svg11.dtd">
<!-- Creator: CorelDRAW -->
<svg xmlns="http://www.w3.org/2000/svg" xml:space="preserve" width="42.7555mm" height="32.6022mm" version="1.1" style="shape-rendering:geometricPrecision; text-rendering:geometricPrecision; image-rendering:optimizeQuality; fill-rule:evenodd; clip-rule:evenodd"
viewBox="0 0 3936.94 3002.02"
 xmlns:xlink="http://www.w3.org/1999/xlink"
 xmlns:xodm="http://www.corel.com/coreldraw/odm/2003">
 <defs>
  <style type="text/css">
   <![CDATA[
    .fil2 {fill:#0E65A3}
    .fil1 {fill:#F79500}
    .fil0 {fill:#0E65A3;fill-rule:nonzero}
   ]]>
  </style>
 </defs>
 <g id="Layer_x0020_1">
  <metadata id="CorelCorpID_0Corel-Layer"/>
  <path class="fil0" d="M3556.9 1480.81c-32.34,13.26 -29.65,50.4 -26.89,79.48 2.88,30.07 6.91,60.05 9.95,90.11 6.99,68.94 11.56,137.95 2.88,206.98 -3.82,30.47 -10.34,60.29 -18.19,89.94 101.58,-100.17 155.32,-258.29 109,-397.16 -10.48,-31.41 -34.37,-86.73 -76.77,-69.35 -7.08,2.92 7.08,-2.89 0,0z"/>
  <g id="_1334587899008">
   <path class="fil1" d="M2432.28 311.67l-1540.5 1512.33c-51.25,-240.32 57.35,-519.78 163.96,-691.62 75.68,-122.01 101.39,-168.93 201.68,-269.21l863.18 -863.18 311.68 311.68z"/>
   <path class="fil2" d="M946.25 2189.24l1681.79 -1681.79 399.82 404.07c106.79,107.91 157.52,150.16 224.24,295.58 391.22,852.47 -214.5,1404.14 -214.5,1404.14 -782.65,779.41 -1658.62,152.14 -1658.62,152.14l311.82 -300.39c603.63,340.42 1042.7,-115.3 1042.7,-115.3 563.73,-726.4 -97.24,-1245.06 -97.24,-1245.06l-1460.71 1460.71c-108.55,-78.95 -229.32,-374.08 -229.32,-374.08z"/>
   <path class="fil1" d="M2377.74 2334.94c-161.53,54.98 -328.03,68.56 -496.83,63.01 -68.08,-1.5 -136.93,-9.38 -203.36,-24.05 305.21,-43.19 504.3,-215.87 612.32,-500.47 86.1,151.29 -10.37,263.13 -83.01,385.04 96.63,-56.9 172.97,-121.04 219.21,-220.37 41.02,-89 52.24,-184.11 37.15,-282.54 -4.22,-35.05 -15.2,-72.54 -9.83,-108.76 4.08,-19.88 12.09,-33.78 33.63,-42.83 18.75,-5.51 35.44,-1.02 46.94,13.76 25.73,26 39.15,56.72 52.93,90.63 20.41,62.2 28.46,129.14 30.16,196.85 15.17,-8.3 13.63,-21.05 15.66,-30.99 23.55,-99.83 15.24,-195.83 -9.4,-293.11 -6.63,-28.29 -16.45,-56.21 -20.29,-88.07 -3.07,-25.5 0.26,-51.78 27.77,-64.8 27.53,-12.99 48.58,0.64 66.8,17.84 32.9,31.57 50.63,71.5 65.17,111.79 87.19,267.59 -36.86,660.82 -385,777.08z"/>
  </g>
  <path class="fil0" d="M576.56 1204.66c71.4,16.51 78.38,94.26 82.49,155.4 4.21,63.21 6,126.6 9.84,189.83 8.83,145.04 22.69,289.37 63.96,429.31 18.2,61.76 41.77,121.29 68.02,179.99 -244.05,-172.98 -408.69,-482.03 -359.75,-785.08 11.07,-68.54 41.83,-191.1 135.44,-169.46 15.64,3.64 -15.64,-3.6 0,0z"/>
  <path class="fil0" d="M43.91 2200.07c7.94,61.02 72.34,73.23 123.09,81.68 52.47,8.71 105.28,15.41 157.81,23.81 120.47,19.29 239.94,42.72 353.49,88.68 50.11,20.29 97.92,44.86 144.81,71.62 -124.5,-218.14 -369.24,-381.07 -626.49,-365.06 -58.17,3.62 -163.12,19.27 -152.72,99.26 1.76,13.36 -1.72,-13.36 0,0z"/>
  <path class="fil0" d="M0.04 1761.98c-0.61,35.52 35.16,47.93 63.43,57.03 29.24,9.39 58.86,17.67 88.15,26.9 67.2,21.17 133.48,44.61 194.47,80.44 26.92,15.81 52.16,33.88 76.69,53.11 -52.75,-135.1 -178.84,-248.81 -327.14,-261.33 -33.54,-2.83 -94.82,-2.73 -95.61,43.85 -0.12,7.78 0.14,-7.78 0,0z"/>
  <path class="fil0" d="M3936.85 2032.45c1.55,47.37 -45.89,64.65 -83.43,77.38 -38.8,13.13 -78.13,24.78 -117.01,37.7 -89.19,29.61 -177.1,62.26 -257.71,111.31 -35.57,21.64 -68.87,46.25 -101.2,72.42 67.57,-181.29 233.39,-335.54 430.93,-355.3 44.68,-4.48 126.4,-5.61 128.42,56.5 0.32,10.37 -0.35,-10.38 0,0z"/>
 </g>
</svg>
