<?xml version="1.0" encoding="UTF-8"?>
<!DOCTYPE svg PUBLIC "-//W3C//DTD SVG 1.1//EN" "http://www.w3.org/Graphics/SVG/1.1/DTD/svg11.dtd">
<!-- Creator: CorelDRAW -->
<svg xmlns="http://www.w3.org/2000/svg" xml:space="preserve" width="46.2901mm" height="47.4833mm" version="1.1" style="shape-rendering:geometricPrecision; text-rendering:geometricPrecision; image-rendering:optimizeQuality; fill-rule:evenodd; clip-rule:evenodd"
viewBox="0 0 4614.78 4733.74"
 xmlns:xlink="http://www.w3.org/1999/xlink"
 xmlns:xodm="http://www.corel.com/coreldraw/odm/2003">
 <defs>
  <style type="text/css">
   <![CDATA[
    .fil2 {fill:#0E65A3}
    .fil1 {fill:#F79500}
    .fil0 {fill:#0E65A3;fill-rule:nonzero}
   ]]>
  </style>
 </defs>
 <g id="Layer_x0020_1">
  <metadata id="CorelCorpID_0Corel-Layer"/>
  <g id="_1333876415056">
   <path class="fil0" d="M3850.95 1603.24c-35.01,14.36 -32.1,54.56 -29.11,86.05 3.12,32.56 7.48,65.01 10.78,97.56 7.57,74.64 12.51,149.35 3.12,224.09 -4.14,32.99 -11.2,65.28 -19.69,97.38 109.98,-108.46 168.16,-279.64 118.02,-429.99 -11.35,-34.01 -37.22,-93.9 -83.11,-75.09 -7.67,3.16 7.67,-3.13 0,0z"/>
   <g>
    <path class="fil1" d="M2633.36 337.45l-1667.86 1637.35c-55.49,-260.19 62.09,-562.76 177.51,-748.8 81.94,-132.09 109.77,-182.9 218.36,-291.46l934.54 -934.54 337.45 337.45z"/>
    <path class="fil2" d="M1024.48 2370.23l1820.83 -1820.83 432.88 437.47c115.61,116.83 170.54,162.58 242.78,320.01 423.56,922.94 -232.23,1520.22 -232.23,1520.22 -847.35,843.85 -1795.73,164.71 -1795.73,164.71l337.6 -325.23c653.54,368.56 1128.9,-124.84 1128.9,-124.84 610.33,-786.46 -105.28,-1347.99 -105.28,-1347.99l-1581.46 1581.46c-117.53,-85.48 -248.27,-405 -248.27,-405z"/>
    <path class="fil1" d="M2574.3 2527.98c-174.88,59.53 -355.15,74.23 -537.9,68.22 -73.71,-1.62 -148.25,-10.16 -220.17,-26.04 330.44,-46.76 545.99,-233.72 662.94,-541.84 93.22,163.8 -11.23,284.88 -89.87,416.87 104.62,-61.6 187.27,-131.05 237.33,-238.58 44.41,-96.36 56.56,-199.34 40.22,-305.9 -4.57,-37.94 -16.46,-78.54 -10.65,-117.75 4.42,-21.52 13.09,-36.58 36.41,-46.37 20.3,-5.96 38.37,-1.11 50.82,14.89 27.85,28.15 42.39,61.41 57.3,98.12 22.09,67.34 30.82,139.82 32.65,213.12 16.42,-8.98 14.75,-22.79 16.96,-33.56 25.5,-108.09 16.5,-212.02 -10.18,-317.34 -7.18,-30.63 -17.82,-60.85 -21.97,-95.36 -3.32,-27.6 0.28,-56.06 30.07,-70.15 29.81,-14.07 52.6,0.69 72.33,19.31 35.62,34.18 54.81,77.41 70.55,121.03 94.4,289.72 -39.91,715.45 -416.83,841.32z"/>
   </g>
   <path class="fil0" d="M624.23 1304.26c77.3,17.87 84.86,102.06 89.3,168.25 4.56,68.44 6.5,137.07 10.66,205.53 9.56,157.03 24.56,313.29 69.25,464.8 19.71,66.86 45.22,131.32 73.64,194.87 -264.23,-187.28 -442.48,-521.88 -389.49,-849.98 11.98,-74.2 45.29,-206.9 146.64,-183.46 16.93,3.94 -16.94,-3.9 0,0z"/>
   <path class="fil0" d="M47.54 2381.96c8.59,66.07 78.32,79.29 133.27,88.44 56.8,9.43 113.99,16.68 170.85,25.78 130.43,20.89 259.78,46.25 382.71,96.01 54.25,21.96 106.01,48.57 156.79,77.54 -134.79,-236.17 -399.77,-412.58 -678.28,-395.24 -62.98,3.92 -176.61,20.87 -165.34,107.47 1.9,14.47 -1.86,-14.47 0,0z"/>
   <path class="fil0" d="M0.04 1907.65c-0.66,38.46 38.06,51.89 68.68,61.75 31.66,10.17 63.72,19.13 95.44,29.12 72.76,22.92 144.51,48.3 210.55,87.09 29.14,17.12 56.48,36.68 83.03,57.5 -57.11,-146.27 -193.62,-269.38 -354.19,-282.94 -36.31,-3.06 -102.65,-2.96 -103.51,47.47 -0.13,8.42 0.15,-8.42 0,0z"/>
   <path class="fil0" d="M4262.31 2200.49c1.67,51.28 -49.69,69.99 -90.33,83.77 -42.01,14.22 -84.59,26.83 -126.68,40.81 -96.56,32.06 -191.74,67.41 -279.02,120.51 -38.51,23.43 -74.56,50.08 -109.56,78.41 73.15,-196.27 252.68,-363.28 466.55,-384.67 48.37,-4.85 136.85,-6.07 139.04,61.17 0.35,11.23 -0.38,-11.24 0,0z"/>
   <path class="fil0" d="M-0 4362.17l0 -967.55c0,-31.35 10.99,-58.16 32.97,-80.13 21.97,-21.98 48.77,-32.97 80.13,-32.97l311.44 0c165.64,0 289.19,43.95 370.94,131.86 81.75,92.2 122.75,228.36 122.75,408.46 0,96.22 -14.73,183.32 -43.95,260.78 -33.51,79.6 -77.73,140.18 -132.13,182.26 -46.1,35.38 -95.42,60.57 -147.94,75.32 -50.13,14.73 -126.78,21.97 -229.42,21.97l-364.78 0zm217.09 -194.58l179.04 0c102.65,0 177.96,-27.34 226.2,-81.75 46.11,-50.38 69.16,-138.29 69.16,-264 0,-121.67 -21.98,-210.66 -65.94,-267.22 -41.81,-56.55 -108.81,-84.96 -201.01,-84.96l-207.45 0 0 697.92z"/>
   <path class="fil0" d="M1542.19 4104.88l157.06 0c-23.05,87.91 -67,154.92 -131.86,201.01 -64.86,48.25 -146.61,72.37 -244.96,72.37 -119.27,0 -212.81,-38.86 -279.82,-116.32 -67.27,-75.31 -100.77,-183.06 -100.77,-323.49 0,-134.02 32.43,-238.54 97.56,-313.85 67.27,-77.45 160.55,-116.32 279.81,-116.32 125.7,0 222.99,37.52 292.15,112.83 67,77.19 100.5,184.94 100.5,322.96 0,8.31 0,15.55 0,21.71 0,6.43 0,10.46 0,12.6 0,10.45 -1.07,17.69 -3.22,21.97l-543.28 0c2.15,65.4 17.7,113.91 47.17,145.54 27.07,33.77 68.08,50.64 122.48,50.64 35.65,0 65.94,-7.5 91.13,-22.24 6.16,-1.87 12.06,-5.63 17.16,-10.99 5.35,-5.09 10.99,-10.99 17.42,-17.42 1.87,-6.17 9.92,-14.74 23.32,-25.2 13.67,-10.45 33.24,-15.81 58.16,-15.81zm-376.84 -246.04l320.29 0c-4.03,-56.29 -18.76,-98.1 -43.96,-125.16 -27.07,-29.22 -65.93,-43.69 -116.05,-43.69 -46.09,0 -83.88,14.47 -113.1,43.69 -29.48,29.21 -45.02,71.03 -47.17,125.16z"/>
   <path class="fil0" d="M2327.48 4104.88l157.06 0c-23.05,87.91 -67,154.92 -131.86,201.01 -64.86,48.25 -146.61,72.37 -244.96,72.37 -119.27,0 -212.81,-38.86 -279.82,-116.32 -67.27,-75.31 -100.77,-183.06 -100.77,-323.49 0,-134.02 32.43,-238.54 97.56,-313.85 67.27,-77.45 160.55,-116.32 279.81,-116.32 125.7,0 222.99,37.52 292.14,112.83 67,77.19 100.51,184.94 100.51,322.96 0,8.31 0,15.55 0,21.71 0,6.43 0,10.46 0,12.6 0,10.45 -1.08,17.69 -3.22,21.97l-543.28 0c2.15,65.4 17.7,113.91 47.17,145.54 27.07,33.77 68.08,50.64 122.48,50.64 35.65,0 65.94,-7.5 91.13,-22.24 6.16,-1.87 12.06,-5.63 17.16,-10.99 5.35,-5.09 10.99,-10.99 17.42,-17.42 1.87,-6.17 9.92,-14.74 23.32,-25.2 13.67,-10.45 33.24,-15.81 58.16,-15.81zm-376.84 -246.04l320.28 0c-4.02,-56.29 -18.75,-98.1 -43.95,-125.16 -27.07,-29.22 -65.93,-43.69 -116.05,-43.69 -46.1,0 -83.88,14.47 -113.1,43.69 -29.48,29.21 -45.02,71.03 -47.17,125.16z"/>
   <path class="fil0" d="M2745.61 4562.92c0,29.21 -10.46,54.13 -31.36,75.05 -21.17,20.9 -46.1,31.35 -75.58,31.35l-106.94 0 0 -781.28c0,-146.6 42.88,-246.3 128.64,-299.64 85.77,-53.34 179.04,-80.14 279.55,-80.14 52.26,0 105.07,9.92 158.4,29.75 53.34,20.11 95.94,48.78 127.31,86.57 62.72,81.48 94.07,186.28 94.07,313.85 0,132.13 -31.35,238.8 -94.07,320.55 -62.72,79.6 -143.39,119.26 -241.49,119.26 -52.54,0 -98.37,-9.38 -138.03,-28.14 -42.07,-20.91 -75.31,-53.34 -100.5,-97.29l0 310.1zm357 -614.83c0,-82.02 -15.55,-144.73 -46.91,-188.96 -31.36,-43.95 -76.38,-65.94 -134.81,-65.94 -56.29,0 -100.24,21.98 -131.33,65.94 -29.22,39.94 -43.95,102.92 -43.95,188.96 0,79.59 15.54,139.37 46.9,179.31 31.36,43.94 76.39,65.93 134.81,65.93 54.14,0 97.02,-21.98 128.38,-65.93 31.35,-44.23 46.91,-104 46.91,-179.31z"/>
   <path class="fil0" d="M3938.83 4104.88l157.06 0c-23.05,87.91 -67,154.92 -131.86,201.01 -64.86,48.25 -146.6,72.37 -244.96,72.37 -119.27,0 -212.8,-38.86 -279.81,-116.32 -67.28,-75.31 -100.78,-183.06 -100.78,-323.49 0,-134.02 32.43,-238.54 97.56,-313.85 67.27,-77.45 160.55,-116.32 279.81,-116.32 125.7,0 222.99,37.52 292.15,112.83 67,77.19 100.5,184.94 100.5,322.96 0,8.31 0,15.55 0,21.71 0,6.43 0,10.46 0,12.6 0,10.45 -1.07,17.69 -3.22,21.97l-543.28 0c2.15,65.4 17.7,113.91 47.17,145.54 27.07,33.77 68.08,50.64 122.48,50.64 35.65,0 65.94,-7.5 91.13,-22.24 6.16,-1.87 12.06,-5.63 17.16,-10.99 5.36,-5.09 10.99,-10.99 17.42,-17.42 1.88,-6.17 9.92,-14.74 23.32,-25.2 13.67,-10.45 33.24,-15.81 58.16,-15.81zm-376.84 -246.04l320.29 0c-4.02,-56.29 -18.76,-98.1 -43.96,-125.16 -27.07,-29.22 -65.93,-43.69 -116.05,-43.69 -46.09,0 -83.88,14.47 -113.1,43.69 -29.48,29.21 -45.02,71.03 -47.17,125.16z"/>
   <path class="fil0" d="M4143.07 4362.17l0 -405.51c0,-81.75 12.06,-150.36 36.18,-205.85 24.13,-55.74 57.09,-100.23 99.17,-133.74 39.93,-31.35 86.56,-54.4 139.9,-69.15 53.35,-14.73 108.29,-21.97 164.83,-21.97 4.29,0 9.38,0 15.82,0 6.16,0 11.51,0 15.81,0l0 223.52 -72.37 0c-60.84,0 -105.86,14.74 -135.08,43.95 -29.21,29.48 -43.95,75.32 -43.95,138.3l0 430.43 -220.31 0z"/>
   <path class="fil0" d="M104.73 4680.47c-13.9,0 -26.87,-2.41 -38.93,-7.24 -12.06,-4.83 -22.58,-11.62 -31.55,-20.41 -8.98,-8.77 -16.02,-19.29 -21.13,-31.55 -5.11,-12.25 -7.67,-25.81 -7.67,-40.67 0,-14.85 2.55,-28.41 7.67,-40.66 5.11,-12.25 12.15,-22.77 21.13,-31.55 8.97,-8.78 19.49,-15.58 31.55,-20.41 12.06,-4.83 25.03,-7.24 38.93,-7.24 8.49,0 16.36,0.96 23.6,2.89 7.24,1.93 13.89,4.64 19.97,8.11 6.08,3.48 11.58,7.53 16.5,12.16 4.92,4.63 9.31,9.65 13.18,15.05l-20.27 11.29c-5.59,-8.11 -13.07,-14.81 -22.44,-20.12 -9.35,-5.3 -19.53,-7.96 -30.54,-7.96 -10.62,0 -20.46,1.92 -29.52,5.78 -9.07,3.86 -16.94,9.26 -23.6,16.21 -6.66,6.95 -11.87,15.2 -15.63,24.75 -3.77,9.55 -5.64,20.12 -5.64,31.69 0,11.39 1.87,21.9 5.64,31.56 3.76,9.65 8.97,17.94 15.63,24.89 6.66,6.95 14.53,12.34 23.6,16.21 9.06,3.86 18.9,5.79 29.52,5.79 11.01,0 21.18,-2.61 30.54,-7.82 9.37,-5.21 16.85,-11.97 22.44,-20.27l20.56 11.29c-8.11,11.01 -18.09,20.13 -29.97,27.37 -11.86,7.23 -26.39,10.85 -43.57,10.85zm107.64 -3.47l0 -193.08 21.71 0 0 193.08 -21.71 0zm132.53 3.47c-10.42,0 -19.97,-1.78 -28.65,-5.35 -8.69,-3.57 -16.17,-8.58 -22.44,-15.05 -6.27,-6.47 -11.2,-14.19 -14.76,-23.16 -3.57,-8.97 -5.35,-18.96 -5.35,-29.96 0,-10.04 1.73,-19.54 5.21,-28.51 3.47,-8.98 8.29,-16.75 14.38,-23.31 6.08,-6.56 13.32,-11.77 21.75,-15.63 8.4,-3.86 17.67,-5.78 27.69,-5.78 10.67,0 20.12,1.92 28.42,5.78 8.34,3.86 15.39,9.17 21.17,15.92 5.84,6.76 10.23,14.71 13.22,23.89 2.99,9.16 4.49,18.96 4.49,29.38l0 5.5 -113.47 0c0.38,6.56 1.83,12.78 4.34,18.67 2.51,5.88 5.94,11 10.28,15.34 4.35,4.34 9.51,7.82 15.49,10.42 5.98,2.6 12.73,3.91 20.26,3.91 8.11,0 15.92,-1.55 23.45,-4.64 7.53,-3.08 14.09,-7.43 19.69,-13.02l10.42 14.19c-6.95,6.95 -15.05,12.25 -24.32,15.91 -9.26,3.67 -19.68,5.5 -31.26,5.5zm43.42 -82.21c0,-5.21 -0.91,-10.57 -2.74,-16.07 -1.83,-5.5 -4.64,-10.52 -8.4,-15.05 -3.76,-4.54 -8.53,-8.24 -14.33,-11.14 -5.78,-2.9 -12.64,-4.35 -20.55,-4.35 -7.53,0 -14.09,1.45 -19.69,4.35 -5.59,2.89 -10.28,6.55 -14.04,11 -3.77,4.44 -6.66,9.4 -8.68,14.9 -2.02,5.5 -3.14,10.96 -3.33,16.36l91.76 0zm148.17 78.74l0 -15.92c-11.77,12.93 -27.22,19.39 -46.32,19.39 -5.99,0 -11.87,-0.97 -17.67,-2.89 -5.78,-1.93 -11,-4.87 -15.63,-8.83 -4.63,-3.96 -8.39,-8.82 -11.29,-14.61 -2.89,-5.79 -4.34,-12.45 -4.34,-19.98 0,-7.72 1.45,-14.48 4.34,-20.26 2.89,-5.79 6.66,-10.62 11.29,-14.48 4.64,-3.86 9.85,-6.71 15.63,-8.54 5.79,-1.82 11.67,-2.75 17.67,-2.75 9.65,0 18.37,1.55 26.19,4.64 7.82,3.09 14.53,7.92 20.13,14.48l0 -25.18c0,-9.46 -3.33,-16.75 -9.99,-21.85 -6.66,-5.12 -15.1,-7.68 -25.33,-7.68 -16.4,0 -30.69,6.46 -42.85,19.39l-10.13 -15.04c14.86,-15.44 33.49,-23.16 55.88,-23.16 7.33,0 14.28,0.87 20.84,2.6 6.56,1.73 12.3,4.49 17.23,8.24 4.91,3.77 8.83,8.64 11.72,14.62 2.89,5.98 4.34,13.22 4.34,21.7l0 96.11 -21.7 0zm-38.5 -12.16c7.72,0 15,-1.45 21.85,-4.34 6.85,-2.9 12.4,-7.24 16.65,-13.03l0 -26.34c-4.25,-5.79 -9.8,-10.13 -16.65,-13.03 -6.85,-2.89 -14.14,-4.34 -21.85,-4.34 -10.23,0 -18.53,2.84 -24.9,8.53 -6.36,5.69 -9.55,13.08 -9.55,22.14 0,8.88 3.19,16.17 9.55,21.86 6.37,5.69 14.67,8.53 24.9,8.53zm202.3 12.16l0 -91.48c0,-12.35 -2.85,-20.85 -8.54,-25.47 -5.69,-4.64 -13.27,-6.95 -22.72,-6.95 -4.25,0 -8.39,0.58 -12.45,1.73 -4.06,1.17 -7.92,2.75 -11.58,4.78 -3.66,2.02 -6.99,4.35 -9.98,6.95 -2.99,2.6 -5.45,5.35 -7.39,8.25l0 102.18 -21.7 0 0 -139.82 21.7 0 0 20.26c2.51,-2.89 5.5,-5.73 8.97,-8.53 3.48,-2.8 7.39,-5.35 11.72,-7.67 4.35,-2.32 8.98,-4.16 13.9,-5.5 4.92,-1.36 9.99,-2.02 15.2,-2.02 29.72,0 44.57,15.05 44.57,45.15l0 98.14 -21.7 0zm80.13 -159.8c-3.86,0 -7.24,-1.4 -10.13,-4.2 -2.89,-2.79 -4.35,-6.22 -4.35,-10.28 0,-4.05 1.46,-7.52 4.35,-10.42 2.89,-2.89 6.27,-4.34 10.13,-4.34 4.06,0 7.53,1.45 10.42,4.34 2.9,2.9 4.35,6.37 4.35,10.42 0,4.06 -1.45,7.49 -4.35,10.28 -2.89,2.8 -6.36,4.2 -10.42,4.2zm-10.71 159.8l0 -139.82 21.7 0 0 139.82 -21.7 0zm163.8 0l0 -91.48c0,-12.35 -2.85,-20.85 -8.54,-25.47 -5.69,-4.64 -13.27,-6.95 -22.72,-6.95 -4.25,0 -8.39,0.58 -12.45,1.73 -4.05,1.17 -7.92,2.75 -11.57,4.78 -3.67,2.02 -7,4.35 -9.99,6.95 -2.99,2.6 -5.45,5.35 -7.39,8.25l0 102.18 -21.7 0 0 -139.82 21.7 0 0 20.26c2.51,-2.89 5.5,-5.73 8.98,-8.53 3.47,-2.8 7.38,-5.35 11.72,-7.67 4.34,-2.32 8.97,-4.16 13.9,-5.5 4.91,-1.36 9.98,-2.02 15.19,-2.02 29.72,0 44.57,15.05 44.57,45.15l0 98.14 -21.7 0zm125.58 56.74c-11.96,0 -22.29,-1.45 -30.97,-4.35 -8.68,-2.89 -17.18,-8.38 -25.47,-16.5l11 -16.21c5.79,6.95 12.3,11.87 19.54,14.76 7.24,2.9 15.87,4.35 25.91,4.35 5.79,0 11.38,-0.73 16.79,-2.17 5.4,-1.45 10.18,-3.86 14.33,-7.24 4.16,-3.38 7.48,-7.72 9.99,-13.03 2.51,-5.3 3.77,-11.81 3.77,-19.54l0 -19.97c-5.01,7.14 -11.62,13.07 -19.83,17.8 -8.2,4.74 -17.23,7.1 -27.07,7.1 -9.07,0 -17.42,-1.63 -25.04,-4.92 -7.63,-3.28 -14.19,-8.06 -19.68,-14.33 -5.5,-6.27 -9.8,-13.85 -12.89,-22.72 -3.08,-8.88 -4.63,-19.01 -4.63,-30.4 0,-11.2 1.5,-21.27 4.49,-30.26 2.99,-8.97 7.24,-16.59 12.74,-22.86 5.49,-6.28 12.05,-11.1 19.68,-14.48 7.62,-3.38 16.07,-5.06 25.33,-5.06 9.46,0 18.23,2.16 26.34,6.51 8.11,4.34 14.95,10.37 20.56,18.08l0 -21.12 21.71 0 0 135.76c0,11.58 -1.88,21.27 -5.65,29.1 -3.76,7.82 -8.73,14.04 -14.9,18.67 -6.17,4.63 -13.27,7.96 -21.27,9.98 -8.02,2.02 -16.26,3.04 -24.75,3.04zm3.18 -74.39c4.26,0 8.49,-0.63 12.74,-1.88 4.25,-1.26 8.2,-2.94 11.86,-5.06 3.67,-2.12 6.95,-4.49 9.85,-7.19 2.89,-2.71 5.3,-5.6 7.24,-8.68l0 -60.89c-1.93,-3.09 -4.35,-5.98 -7.24,-8.68 -2.9,-2.7 -6.18,-5.06 -9.85,-7.04 -3.66,-2.03 -7.62,-3.67 -11.86,-4.92 -4.25,-1.26 -8.48,-1.88 -12.74,-1.88 -6.94,0 -13.22,1.3 -18.81,3.91 -5.59,2.6 -10.33,6.22 -14.19,10.96 -3.86,4.73 -6.8,10.37 -8.82,16.88 -2.03,6.56 -3.05,13.66 -3.05,21.37 0,7.73 1.02,14.76 3.05,21.22 2.02,6.42 4.96,12.02 8.82,16.75 3.86,4.73 8.59,8.39 14.19,11.1 5.59,2.7 11.87,4.06 18.81,4.06zm323.88 21.12c-16.98,0 -31.55,-2.84 -43.71,-8.54 -12.16,-5.68 -22.29,-13.07 -30.4,-22.14l14.19 -18.23c3.08,3.47 6.75,6.9 11,10.28 4.25,3.38 8.92,6.32 14.04,8.82 5.11,2.51 10.67,4.55 16.65,6.08 5.98,1.55 12.35,2.32 19.1,2.32 8.68,0 15.92,-1.07 21.71,-3.19 5.79,-2.12 10.42,-4.78 13.9,-7.96 3.47,-3.19 5.98,-6.76 7.53,-10.72 1.55,-3.95 2.31,-7.77 2.31,-11.43 0,-6.17 -1.63,-11.29 -4.91,-15.34 -3.28,-4.05 -7.58,-7.48 -12.89,-10.27 -5.3,-2.8 -11.38,-5.12 -18.23,-6.95 -6.85,-1.83 -13.9,-3.77 -21.13,-5.79 -7.24,-2.02 -14.28,-4.3 -21.12,-6.81 -6.85,-2.5 -12.93,-5.73 -18.24,-9.69 -5.3,-3.96 -9.6,-8.83 -12.88,-14.61 -3.28,-5.79 -4.91,-13.03 -4.91,-21.71 0,-7.92 1.68,-15.15 5.06,-21.71 3.37,-6.56 8.01,-12.2 13.89,-16.94 5.89,-4.73 12.89,-8.39 21,-11 8.11,-2.61 16.88,-3.91 26.34,-3.91 14.86,0 27.98,2.31 39.37,6.95 11.38,4.63 21.13,11.29 29.24,19.97l-14.48 17.66c-7.34,-8.11 -15.83,-13.99 -25.47,-17.66 -9.65,-3.67 -19.79,-5.5 -30.4,-5.5 -11.58,0 -21.09,2.8 -28.51,8.39 -7.44,5.6 -11.15,13.03 -11.15,22.29 0,5.41 1.63,9.85 4.91,13.32 3.29,3.48 7.58,6.47 12.88,8.97 5.31,2.51 11.39,4.69 18.24,6.51 6.85,1.84 13.89,3.77 21.12,5.79 7.24,2.03 14.29,4.4 21.13,7.1 6.85,2.7 12.93,6.17 18.24,10.42 5.3,4.25 9.6,9.45 12.88,15.63 3.28,6.18 4.91,13.8 4.91,22.87 0,6.95 -1.26,13.85 -3.76,20.7 -2.51,6.86 -6.61,12.93 -12.3,18.24 -5.69,5.3 -13.08,9.59 -22.15,12.87 -9.06,3.28 -20.07,4.92 -33,4.92zm171.61 0c-10.61,0 -20.21,-1.92 -28.8,-5.79 -8.58,-3.86 -15.87,-9.11 -21.85,-15.77 -5.98,-6.66 -10.57,-14.43 -13.75,-23.31 -3.19,-8.87 -4.79,-18.42 -4.79,-28.65 0,-10.04 1.6,-19.54 4.79,-28.51 3.18,-8.98 7.77,-16.75 13.75,-23.31 5.98,-6.56 13.27,-11.77 21.85,-15.63 8.59,-3.86 18.19,-5.78 28.8,-5.78 10.62,0 20.22,1.92 28.8,5.78 8.59,3.86 15.88,9.07 21.86,15.63 5.98,6.56 10.57,14.33 13.75,23.31 3.19,8.97 4.78,18.47 4.78,28.51 0,10.23 -1.59,19.78 -4.78,28.65 -3.18,8.88 -7.77,16.65 -13.75,23.31 -5.98,6.66 -13.27,11.91 -21.86,15.77 -8.58,3.87 -18.18,5.79 -28.8,5.79zm0 -19.39c7.53,0 14.14,-1.5 19.84,-4.49 5.68,-3 10.52,-6.95 14.47,-11.87 3.96,-4.91 6.95,-10.66 8.97,-17.23 2.03,-6.56 3.04,-13.41 3.04,-20.55 0,-7.14 -1.01,-13.95 -3.04,-20.41 -2.02,-6.47 -5.01,-12.16 -8.97,-17.09 -3.95,-4.91 -8.78,-8.87 -14.47,-11.86 -5.7,-2.99 -12.31,-4.49 -19.84,-4.49 -7.53,0 -14.19,1.5 -19.97,4.49 -5.79,2.99 -10.67,6.95 -14.62,11.86 -3.95,4.92 -6.95,10.62 -8.97,17.09 -2.02,6.46 -3.04,13.27 -3.04,20.41 0,7.14 1.02,13.99 3.04,20.55 2.02,6.57 5.02,12.31 8.97,17.23 3.96,4.92 8.83,8.87 14.62,11.87 5.78,2.99 12.44,4.49 19.97,4.49zm108.79 15.92l0 -193.08 21.71 0 0 193.08 -21.71 0zm163.81 0l0 -19.69c-5.41,6.18 -12.45,11.58 -21.13,16.22 -8.68,4.63 -18.24,6.94 -28.66,6.94 -14.66,0 -25.76,-3.62 -33.29,-10.85 -7.53,-7.24 -11.3,-18.48 -11.3,-33.73l0 -98.72 21.71 0 0 92.06c0,6.17 0.73,11.29 2.17,15.34 1.45,4.05 3.57,7.33 6.36,9.84 2.8,2.5 6.13,4.25 9.99,5.21 3.87,0.96 8.11,1.45 12.74,1.45 8.49,0 16.5,-2.12 24.03,-6.37 7.53,-4.25 13.32,-9.17 17.38,-14.76l0 -102.76 21.7 0 0 139.82 -21.7 0zm104.74 3.47c-10.42,0 -18.19,-2.84 -23.31,-8.54 -5.1,-5.63 -7.67,-13.7 -7.67,-24.07l0 -91.28 -23.16 0 0 -19.4 23.16 0 0 -38.21 21.71 0 0 38.21 28.37 0 0 19.4 -28.37 0 0 86.59c0,5.21 1.16,9.46 3.47,12.84 2.31,3.37 5.89,5.06 10.72,5.06 3.08,0 5.93,-0.58 8.53,-1.73 2.61,-1.17 4.68,-2.51 6.23,-4.06l6.36 16.21c-2.7,2.7 -6.12,4.87 -10.27,6.51 -4.16,1.64 -9.41,2.46 -15.78,2.46zm64.79 -163.27c-3.86,0 -7.24,-1.4 -10.13,-4.2 -2.89,-2.79 -4.35,-6.22 -4.35,-10.28 0,-4.05 1.46,-7.52 4.35,-10.42 2.89,-2.89 6.27,-4.34 10.13,-4.34 4.06,0 7.53,1.45 10.43,4.34 2.89,2.9 4.34,6.37 4.34,10.42 0,4.06 -1.45,7.49 -4.34,10.28 -2.9,2.8 -6.37,4.2 -10.43,4.2zm-10.71 159.8l0 -139.82 21.71 0 0 139.82 -21.71 0zm130.51 3.47c-10.62,0 -20.22,-1.92 -28.8,-5.79 -8.59,-3.86 -15.87,-9.11 -21.86,-15.77 -5.98,-6.66 -10.57,-14.43 -13.75,-23.31 -3.18,-8.87 -4.78,-18.42 -4.78,-28.65 0,-10.04 1.6,-19.54 4.78,-28.51 3.18,-8.98 7.77,-16.75 13.75,-23.31 5.99,-6.56 13.27,-11.77 21.86,-15.63 8.58,-3.86 18.18,-5.78 28.8,-5.78 10.62,0 20.21,1.92 28.8,5.78 8.58,3.86 15.87,9.07 21.85,15.63 5.98,6.56 10.57,14.33 13.75,23.31 3.19,8.97 4.79,18.47 4.79,28.51 0,10.23 -1.6,19.78 -4.79,28.65 -3.18,8.88 -7.77,16.65 -13.75,23.31 -5.98,6.66 -13.27,11.91 -21.85,15.77 -8.59,3.87 -18.18,5.79 -28.8,5.79zm0 -19.39c7.53,0 14.14,-1.5 19.83,-4.49 5.69,-3 10.52,-6.95 14.47,-11.87 3.96,-4.91 6.95,-10.66 8.98,-17.23 2.02,-6.56 3.04,-13.41 3.04,-20.55 0,-7.14 -1.02,-13.95 -3.04,-20.41 -2.03,-6.47 -5.02,-12.16 -8.98,-17.09 -3.95,-4.91 -8.77,-8.87 -14.47,-11.86 -5.69,-2.99 -12.3,-4.49 -19.83,-4.49 -7.53,0 -14.19,1.5 -19.98,4.49 -5.78,2.99 -10.66,6.95 -14.61,11.86 -3.96,4.92 -6.95,10.62 -8.97,17.09 -2.03,6.46 -3.04,13.27 -3.04,20.41 0,7.14 1.01,13.99 3.04,20.55 2.02,6.57 5.01,12.31 8.97,17.23 3.96,4.92 8.83,8.87 14.61,11.87 5.79,2.99 12.45,4.49 19.98,4.49zm203.16 15.92l0 -91.48c0,-12.35 -2.85,-20.85 -8.54,-25.47 -5.69,-4.64 -13.27,-6.95 -22.72,-6.95 -4.25,0 -8.39,0.58 -12.45,1.73 -4.06,1.17 -7.92,2.75 -11.57,4.78 -3.67,2.02 -7,4.35 -9.99,6.95 -2.99,2.6 -5.45,5.35 -7.39,8.25l0 102.18 -21.7 0 0 -139.82 21.7 0 0 20.26c2.51,-2.89 5.5,-5.73 8.98,-8.53 3.47,-2.8 7.38,-5.35 11.72,-7.67 4.34,-2.32 8.97,-4.16 13.9,-5.5 4.91,-1.36 9.98,-2.02 15.19,-2.02 29.72,0 44.57,15.05 44.57,45.15l0 98.14 -21.7 0z"/>
  </g>
 </g>
</svg>
